<svg width="36" height="36" viewBox="0 0 36 36" fill="none" xmlns="http://www.w3.org/2000/svg">
<path d="M14.8211 8.55184L9.71646 11.6565L7.38801 7.83542C6.53724 6.43239 6.98501 4.58157 8.38805 3.73079C9.79109 2.88002 11.6419 3.32777 12.4927 4.73081L14.8211 8.55184Z" stroke="white" stroke-width="1.5" stroke-linecap="round" stroke-linejoin="round"/>
<path d="M17.7311 13.761L13.0145 16.6269C10.2681 18.2986 9.43226 21.6718 10.7607 24.3585L13.8205 30.5975C14.8056 32.6125 17.1938 33.314 19.1043 32.1348L28.7016 26.2988C30.6271 25.1346 31.0898 22.7017 29.7614 20.8957L25.6269 15.3134C23.8358 12.8954 20.4775 12.0893 17.7311 13.761Z" stroke="white" stroke-width="1.5" stroke-linecap="round" stroke-linejoin="round"/>
<path d="M16.1441 7.69805L8.49512 12.3558L11.6003 17.4551L19.2492 12.7973L16.1441 7.69805Z" stroke="white" stroke-width="1.5" stroke-linecap="round" stroke-linejoin="round"/>
<path d="M21.4482 25.1793L23.911 29.2243" stroke="white" stroke-width="1.5" stroke-linecap="round" stroke-linejoin="round"/>
<path d="M17.627 27.5078L20.0897 31.5528" stroke="white" stroke-width="1.5" stroke-linecap="round" stroke-linejoin="round"/>
<path d="M25.2686 22.851L27.7313 26.8959" stroke="white" stroke-width="1.5" stroke-linecap="round" stroke-linejoin="round"/>
</svg>
