<svg width="32" height="32" viewBox="0 0 32 32" fill="none" xmlns="http://www.w3.org/2000/svg">
<path d="M29.333 8.66663H21.333" stroke="white" stroke-width="1.5" stroke-miterlimit="10" stroke-linecap="round" stroke-linejoin="round"/>
<path d="M8.00033 8.66663H2.66699" stroke="white" stroke-width="1.5" stroke-miterlimit="10" stroke-linecap="round" stroke-linejoin="round"/>
<path d="M13.3337 13.3333C15.911 13.3333 18.0003 11.244 18.0003 8.66667C18.0003 6.08934 15.911 4 13.3337 4C10.7563 4 8.66699 6.08934 8.66699 8.66667C8.66699 11.244 10.7563 13.3333 13.3337 13.3333Z" stroke="white" stroke-width="1.5" stroke-miterlimit="10" stroke-linecap="round" stroke-linejoin="round"/>
<path d="M29.3333 23.3334H24" stroke="white" stroke-width="1.5" stroke-miterlimit="10" stroke-linecap="round" stroke-linejoin="round"/>
<path d="M10.667 23.3334H2.66699" stroke="white" stroke-width="1.5" stroke-miterlimit="10" stroke-linecap="round" stroke-linejoin="round"/>
<path d="M18.6667 28C21.244 28 23.3333 25.9106 23.3333 23.3333C23.3333 20.756 21.244 18.6666 18.6667 18.6666C16.0893 18.6666 14 20.756 14 23.3333C14 25.9106 16.0893 28 18.6667 28Z" stroke="white" stroke-width="1.5" stroke-miterlimit="10" stroke-linecap="round" stroke-linejoin="round"/>
</svg>
