<svg width="32" height="32" viewBox="0 0 32 32" fill="none" xmlns="http://www.w3.org/2000/svg">
<path d="M28.8796 13.9201L27.5729 19.4934C26.4529 24.3067 24.2396 26.2534 20.0796 25.8534C19.4129 25.8001 18.6929 25.6801 17.9196 25.4934L15.6796 24.9601C10.1196 23.6401 8.39959 20.8934 9.70626 15.3201L11.0129 9.73339C11.2796 8.60005 11.5996 7.61338 11.9996 6.80005C13.5596 3.57338 16.2129 2.70672 20.6663 3.76005L22.8929 4.28005C28.4796 5.58672 30.1863 8.34672 28.8796 13.9201Z" stroke="white" stroke-width="1.5" stroke-linecap="round" stroke-linejoin="round"/>
<path d="M20.0805 25.8534C19.2538 26.4134 18.2138 26.88 16.9471 27.2934L14.8405 27.9867C9.54712 29.6934 6.76045 28.2667 5.04045 22.9734L3.33379 17.7067C1.62712 12.4134 3.04045 9.61338 8.33379 7.90672L10.4405 7.21338C10.9871 7.04005 11.5071 6.89338 12.0005 6.80005C11.6005 7.61338 11.2805 8.60005 11.0138 9.73338L9.70712 15.32C8.40046 20.8934 10.1205 23.64 15.6805 24.96L17.9205 25.4934C18.6938 25.6801 19.4138 25.8 20.0805 25.8534Z" stroke="white" stroke-width="1.5" stroke-linecap="round" stroke-linejoin="round"/>
<path d="M16.8535 11.3733L23.3202 13.0133" stroke="white" stroke-width="1.5" stroke-linecap="round" stroke-linejoin="round"/>
<path d="M15.5469 16.5333L19.4135 17.52" stroke="white" stroke-width="1.5" stroke-linecap="round" stroke-linejoin="round"/>
</svg>
