<svg width="50" height="50" viewBox="0 0 50 50" fill="none" xmlns="http://www.w3.org/2000/svg">
<circle cx="25" cy="25" r="25" fill="white"/>
<path d="M20.5 22C22.1569 22 23.5 20.6569 23.5 19C23.5 17.3431 22.1569 16 20.5 16C18.8431 16 17.5 17.3431 17.5 19C17.5 20.6569 18.8431 22 20.5 22Z" stroke="#DC0000" stroke-width="2" stroke-linecap="round" stroke-linejoin="round"/>
<path d="M26.5 10H20.5C13 10 10 13 10 20.5V29.5C10 37 13 40 20.5 40H29.5C37 40 40 37 40 29.5V22" stroke="#DC0000" stroke-width="2" stroke-linecap="round" stroke-linejoin="round"/>
<path d="M30.625 14.5H38.875" stroke="#DC0000" stroke-width="2" stroke-linecap="round"/>
<path d="M34.75 18.625V10.375" stroke="#DC0000" stroke-width="2" stroke-linecap="round"/>
<path d="M11.0049 35.425L18.3999 30.46C19.5849 29.665 21.2949 29.755 22.3599 30.67L22.8549 31.105C24.0249 32.11 25.9149 32.11 27.0849 31.105L33.3249 25.75C34.4949 24.745 36.3849 24.745 37.5549 25.75L39.9999 27.85" stroke="#DC0000" stroke-width="2" stroke-linecap="round" stroke-linejoin="round"/>
</svg>
