<svg width="32" height="32" viewBox="0 0 32 32" fill="none" xmlns="http://www.w3.org/2000/svg">
<path d="M27.4535 14.0667V9.49333C27.4535 7.85333 26.2002 6.04 24.6669 5.46666L18.0135 2.97333C16.9069 2.56 15.0935 2.56 13.9869 2.97333L7.33354 5.48C5.80021 6.05333 4.54688 7.86666 4.54688 9.49333V19.4C4.54688 20.9733 5.58687 23.04 6.85354 23.9867L12.5869 28.2667C13.5202 28.9867 14.7602 29.3333 16.0002 29.3333" stroke="white" stroke-width="1.5" stroke-linecap="round" stroke-linejoin="round"/>
<path d="M21.3333 26.6667C24.2789 26.6667 26.6667 24.2789 26.6667 21.3333C26.6667 18.3878 24.2789 16 21.3333 16C18.3878 16 16 18.3878 16 21.3333C16 24.2789 18.3878 26.6667 21.3333 26.6667Z" stroke="white" stroke-width="1.5" stroke-linecap="round" stroke-linejoin="round"/>
<path d="M27.9937 28H28.0057" stroke="white" stroke-width="2" stroke-linecap="round" stroke-linejoin="round"/>
</svg>
